<?xml version="1.0" encoding="utf-8"?>
<!-- Generator: Adobe Illustrator 17.0.0, SVG Export Plug-In . SVG Version: 6.00 Build 0)  -->
<!DOCTYPE svg PUBLIC "-//W3C//DTD SVG 1.1//EN" "http://www.w3.org/Graphics/SVG/1.1/DTD/svg11.dtd">
<svg version="1.1" id="Layer_1" xmlns="http://www.w3.org/2000/svg" xmlns:xlink="http://www.w3.org/1999/xlink" x="0px" y="0px"
	 width="651.969px" height="198.425px" viewBox="0 0 651.969 198.425" enable-background="new 0 0 651.969 198.425"
	 xml:space="preserve">
<g>
	<g id="CIRCLE_1_">
		<path fill="#4C6CA9" d="M327.864,99.215c-22.35,0-40.46,18.12-40.46,40.46c0,22.35,18.11,40.47,40.46,40.47
			s40.46-18.12,40.46-40.47C368.324,117.335,350.214,99.215,327.864,99.215z M327.864,172.045c-17.88,0-32.37-14.49-32.37-32.37
			c0-17.87,14.49-32.37,32.37-32.37s32.37,14.5,32.37,32.37C360.234,157.555,345.744,172.045,327.864,172.045z"/>
	</g>
	<g id="LINE_4_">
		<path fill="#4C6CA9" d="M97.514,168.295c-7.59,7.58-17.88,11.85-28.62,11.85c-22.34,0-40.46-18.12-40.46-40.47V18.285h8.09v121.39
			c0,17.88,14.5,32.37,32.37,32.37c8.59,0,16.82-3.41,22.89-9.48L97.514,168.295z"/>
	</g>
	<g id="LINE_6_">
		<path fill="#4C6CA9" d="M153.874,99.415c-22.24-2.23-42.07,13.98-44.31,36.22c-2.23,22.23,13.98,42.07,36.21,44.3
			c12.09,1.22,24.08-3.06,32.66-11.64l-5.72-5.73c-5.08,5.09-11.71,8.33-18.84,9.23c-17.74,2.23-33.93-10.33-36.17-28.07h72.38
			C192.324,121.485,176.104,101.655,153.874,99.415z M117.704,135.635c1.85-14.67,13.41-26.23,28.07-28.07
			c17.74-2.24,33.93,10.33,36.17,28.07H117.704z"/>
	</g>
	<g id="LINE_14_">
		<path fill="#4C6CA9" d="M244.584,139.675l30.68,35.11c-1.88,1.94-3.91,3.74-6.07,5.36l-30.35-34.73l-30.35,34.73
			c-2.16-1.62-4.19-3.42-6.07-5.36l30.68-35.11l-30.68-35.1c1.88-1.95,3.91-3.74,6.07-5.36l30.35,34.73l30.35-34.73
			c2.16,1.62,4.19,3.41,6.07,5.36L244.584,139.675z"/>
	</g>
	<g id="LINE_18_">
		<path fill="#4C6CA9" d="M444.504,102.295l-3.09,7.48c-16.52-6.84-35.46,1-42.3,17.52c-1.63,3.92-2.46,8.13-2.46,12.38v40.47h-8.1
			v-40.47c0-5.31,1.05-10.57,3.08-15.48C400.194,103.545,423.864,93.745,444.504,102.295z"/>
	</g>
	<g id="LINE_22_">
		<path fill="#4C6CA9" d="M623.534,168.295c-7.59,7.58-17.88,11.85-28.61,11.85c-22.35,0-40.47-18.12-40.47-40.47V18.285h8.1v121.39
			c0,17.88,14.49,32.37,32.37,32.37c8.58,0,16.82-3.41,22.89-9.48L623.534,168.295z"/>
	</g>
	<g id="LINE_25_">
		<path fill="#4C6CA9" d="M493.764,99.215c-22.35,0-40.46,18.12-40.46,40.46c0,22.35,18.11,40.47,40.46,40.47
			c12.74,0,24.73-6,32.37-16.19v16.19h8.09v-40.47C534.224,117.335,516.114,99.215,493.764,99.215z M493.764,172.045
			c-17.88,0-32.37-14.49-32.37-32.37c0-17.87,14.49-32.37,32.37-32.37c17.88,0,32.37,14.5,32.37,32.37
			C526.134,157.555,511.644,172.045,493.764,172.045z"/>
	</g>
</g>
</svg>
