<?xml version="1.0" encoding="UTF-8" standalone="no"?>
<!-- Created with Inkscape (http://www.inkscape.org/) -->

<svg
   xmlns:dc="http://purl.org/dc/elements/1.1/"
   xmlns:cc="http://creativecommons.org/ns#"
   xmlns:rdf="http://www.w3.org/1999/02/22-rdf-syntax-ns#"
   xmlns:svg="http://www.w3.org/2000/svg"
   xmlns="http://www.w3.org/2000/svg"
   xmlns:sodipodi="http://sodipodi.sourceforge.net/DTD/sodipodi-0.dtd"
   xmlns:inkscape="http://www.inkscape.org/namespaces/inkscape"
   version="1.1"
   id="svg29"
   xml:space="preserve"
   width="1132"
   height="275.44266"
   viewBox="0 0 1132 275.44266"
   sodipodi:docname="smallBrand_white.svg"
   inkscape:version="0.92.5 (2060ec1f9f, 2020-04-08)"><metadata
     id="metadata35"><rdf:RDF><cc:Work
         rdf:about=""><dc:format>image/svg+xml</dc:format><dc:type
           rdf:resource="http://purl.org/dc/dcmitype/StillImage" /><dc:title></dc:title></cc:Work></rdf:RDF></metadata><defs
     id="defs33"><clipPath
       clipPathUnits="userSpaceOnUse"
       id="clipPath45"><path
         d="M 0,206.582 H 849 V 0 H 0 Z"
         id="path43"
         inkscape:connector-curvature="0" /></clipPath></defs><sodipodi:namedview
     pagecolor="#ffffff"
     bordercolor="#666666"
     borderopacity="1"
     objecttolerance="10"
     gridtolerance="10"
     guidetolerance="10"
     inkscape:pageopacity="0"
     inkscape:pageshadow="2"
     inkscape:window-width="2560"
     inkscape:window-height="1440"
     id="namedview31"
     showgrid="false"
     inkscape:zoom="0.98695116"
     inkscape:cx="443.57362"
     inkscape:cy="341.68366"
     inkscape:window-x="1080"
     inkscape:window-y="1080"
     inkscape:window-maximized="0"
     inkscape:current-layer="g41" /><g
     id="g37"
     inkscape:groupmode="layer"
     inkscape:label="smallBrand"
     transform="matrix(1.3333333,0,0,-1.3333333,0,275.44267)"><g
       id="g39"><g
         id="g41"
         clip-path="url(#clipPath45)"><g
           id="g47"
           transform="translate(516.88,33.4415)"
           style="fill:#e9ebed;fill-opacity:1"><path
             d="m 0,0 c -17.88,0 -32.37,14.49 -32.37,32.37 0,17.87 14.49,32.37 32.37,32.37 17.88,0 32.37,-14.5 32.37,-32.37 C 32.37,14.49 17.88,0 0,0 m 0,72.83 c -22.35,0 -40.46,-18.12 -40.46,-40.46 0,-22.35 18.11,-40.47 40.46,-40.47 22.35,0 40.46,18.12 40.46,40.47 0,22.34 -18.11,40.46 -40.46,40.46"
             style="fill:#e9ebed;fill-opacity:1;fill-rule:nonzero;stroke:none"
             id="path49"
             inkscape:connector-curvature="0" /></g><g
           id="g51"
           transform="translate(286.53,37.1915)"
           style="fill:#e9ebed;fill-opacity:1"><path
             d="m 0,0 c -7.59,-7.58 -17.88,-11.85 -28.62,-11.85 -22.34,0 -40.46,18.12 -40.46,40.47 v 121.39 h 8.09 V 28.62 c 0,-17.88 14.5,-32.37 32.37,-32.37 8.59,0 16.82,3.41 22.89,9.48 z"
             style="fill:#e9ebed;fill-opacity:1;fill-rule:nonzero;stroke:none"
             id="path53"
             inkscape:connector-curvature="0" /></g><g
           id="g55"
           transform="translate(306.72,69.8515)"
           style="fill:#e9ebed;fill-opacity:1"><path
             d="M 0,0 C 1.85,14.67 13.41,26.23 28.07,28.07 45.81,30.31 62,17.74 64.24,0 Z M 36.17,36.22 C 13.93,38.45 -5.9,22.24 -8.14,0 c -2.23,-22.23 13.98,-42.07 36.21,-44.3 12.09,-1.22 24.08,3.06 32.66,11.64 l -5.72,5.73 C 49.93,-32.02 43.3,-35.26 36.17,-36.16 18.43,-38.39 2.24,-25.83 0,-8.09 H 72.38 C 74.62,14.15 58.4,33.98 36.17,36.22"
             style="fill:#e9ebed;fill-opacity:1;fill-rule:nonzero;stroke:none"
             id="path57"
             inkscape:connector-curvature="0" /></g><g
           id="g59"
           transform="translate(433.6,65.8115)"
           style="fill:#e9ebed;fill-opacity:1"><path
             d="m 0,0 30.68,-35.11 c -1.88,-1.94 -3.91,-3.74 -6.07,-5.36 L -5.74,-5.74 -36.09,-40.47 c -2.16,1.62 -4.19,3.42 -6.07,5.36 L -11.48,0 -42.16,35.1 c 1.88,1.95 3.91,3.74 6.07,5.36 L -5.74,5.73 24.61,40.46 c 2.16,-1.62 4.19,-3.41 6.07,-5.36 z"
             style="fill:#e9ebed;fill-opacity:1;fill-rule:nonzero;stroke:none"
             id="path61"
             inkscape:connector-curvature="0" /></g><g
           id="g63"
           transform="translate(633.52,103.1915)"
           style="fill:#e9ebed;fill-opacity:1"><path
             d="m 0,0 -3.09,-7.48 c -16.52,6.84 -35.46,-1 -42.3,-17.52 -1.63,-3.92 -2.46,-8.13 -2.46,-12.38 v -40.47 h -8.1 v 40.47 c 0,5.31 1.05,10.57 3.08,15.48 C -44.31,-1.25 -20.64,8.55 0,0"
             style="fill:#e9ebed;fill-opacity:1;fill-rule:nonzero;stroke:none"
             id="path65"
             inkscape:connector-curvature="0" /></g><g
           id="g67"
           transform="translate(812.55,37.1915)"
           style="fill:#e9ebed;fill-opacity:1"><path
             d="m 0,0 c -7.59,-7.58 -17.88,-11.85 -28.61,-11.85 -22.35,0 -40.47,18.12 -40.47,40.47 v 121.39 h 8.1 V 28.62 c 0,-17.88 14.49,-32.37 32.37,-32.37 8.58,0 16.82,3.41 22.89,9.48 z"
             style="fill:#e9ebed;fill-opacity:1;fill-rule:nonzero;stroke:none"
             id="path69"
             inkscape:connector-curvature="0" /></g><g
           id="g71"
           transform="translate(682.78,33.4415)"
           style="fill:#e9ebed;fill-opacity:1"><path
             d="m 0,0 c -17.88,0 -32.37,14.49 -32.37,32.37 0,17.87 14.49,32.37 32.37,32.37 17.88,0 32.37,-14.5 32.37,-32.37 C 32.37,14.49 17.88,0 0,0 m 0,72.83 c -22.35,0 -40.46,-18.12 -40.46,-40.46 0,-22.35 18.11,-40.47 40.46,-40.47 12.74,0 24.73,6 32.37,16.19 V -8.1 h 8.09 V 32.37 C 40.46,54.71 22.35,72.83 0,72.83"
             style="fill:#e9ebed;fill-opacity:1;fill-rule:nonzero;stroke:none"
             id="path73"
             inkscape:connector-curvature="0" /></g><g
           id="g75"
           transform="translate(158.3369,69.0459)"
           style="fill:#e9ebed;fill-opacity:1"><path
             d="m 0,0 c -1.11,2.228 -2.701,4.181 -4.663,5.721 17.37,29.612 7.674,67.682 -21.732,85.387 0.981,2.288 1.454,4.766 1.36,7.253 1.273,-0.706 2.52,-1.446 3.742,-2.229 C 11.133,75.467 20.665,32.426 0,0"
             style="fill:#e9ebed;fill-opacity:1;fill-rule:nonzero;stroke:none"
             id="path77"
             inkscape:connector-curvature="0" /></g><g
           id="g79"
           transform="translate(43.8109,77.9846)"
           style="fill:#e9ebed;fill-opacity:1"><path
             d="m 0,0 c -2.366,-0.886 -4.93,-1.118 -7.416,-0.671 -3.562,7.734 -5.678,16.045 -6.237,24.536 1.961,1.592 4.327,2.607 6.831,2.96 C -0.379,27.72 5.824,24.029 8.113,17.946 10.831,10.745 7.192,2.719 0,0"
             style="fill:#e9ebed;fill-opacity:1;fill-rule:nonzero;stroke:none"
             id="path81"
             inkscape:connector-curvature="0" /></g><g
           id="g83"
           transform="translate(102.6827,176.0268)"
           style="fill:#e9ebed;fill-opacity:1"><path
             d="m 0,0 c -1.376,-2.073 -2.28,-4.431 -2.624,-6.9 -34.327,0.241 -62.459,-27.186 -63.087,-61.513 -2.469,-0.284 -4.853,-1.127 -6.96,-2.452 -0.026,1.454 -0.009,2.908 0.06,4.362 C -70.925,-28.089 -38.422,1.686 0,0"
             style="fill:#e9ebed;fill-opacity:1;fill-rule:nonzero;stroke:none"
             id="path85"
             inkscape:connector-curvature="0" /></g><g
           id="g87"
           transform="translate(129.4989,161.5476)"
           style="fill:#e9ebed;fill-opacity:1"><path
             d="m 0,0 c -2.443,-6.031 -8.741,-9.558 -15.159,-8.5 -7.588,1.247 -12.724,8.414 -11.477,16.002 0.405,2.486 1.489,4.826 3.123,6.754 C -15.038,13.473 -6.779,11.15 0.86,7.39 1.247,4.895 0.955,2.34 0,0"
             style="fill:#e9ebed;fill-opacity:1;fill-rule:nonzero;stroke:none"
             id="path89"
             inkscape:connector-curvature="0" /></g><g
           id="g91"
           transform="translate(135.5556,46.841)"
           style="fill:#e9ebed;fill-opacity:1"><path
             d="m 0,0 c -18.738,-11.296 -41.7,-13.12 -61.986,-4.93 l -1.721,-1.342 -1.738,-1.282 -1.772,-1.221 -1.789,-1.153 -1.798,-1.093 -1.919,-1.101 -1.918,-1.024 -1.919,-0.963 -1.901,-0.904 -1.884,-0.834 -1.859,-0.783 -1.824,-0.714 -1.789,-0.654 -1.738,-0.594 -1.686,-0.533 -1.626,-0.482 -1.557,-0.421 -1.256,-0.31 -1.196,-0.275 -1.136,-0.233 -1.075,-0.197 -0.852,-0.138 -0.809,-0.112 -0.748,-0.095 -0.697,-0.06 -0.637,-0.034 -0.567,-0.017 c -0.413,0 -0.801,0.18 -1.067,0.499 -0.499,0.585 -0.422,1.462 0.163,1.961 10.1,8.621 14.737,22.042 12.096,35.058 -2.865,3.571 -5.377,7.416 -7.493,11.477 2.486,-0.155 4.973,0.249 7.287,1.179 C -73.454,-1.17 -35.635,-11.821 -5.601,4.801 -4.112,2.805 -2.202,1.161 0,0"
             style="fill:#e9ebed;fill-opacity:1;fill-rule:nonzero;stroke:none"
             id="path93"
             inkscape:connector-curvature="0" /></g><g
           id="g95"
           transform="translate(156.4872,66.2928)"
           style="fill:#e9ebed;fill-opacity:1"><path
             d="m 0,0 c -4.912,-6.951 -11.055,-12.939 -18.127,-17.68 -2.357,0.912 -4.422,2.444 -5.979,4.44 -3.992,5.136 -3.906,12.354 0.224,17.387 4.869,5.945 13.644,6.813 19.589,1.935 C -2.331,4.482 -0.852,2.374 0,0"
             style="fill:#e9ebed;fill-opacity:1;fill-rule:nonzero;stroke:none"
             id="path97"
             inkscape:connector-curvature="0" /></g><g
           id="g99"
           transform="translate(148.7616,80.4107)"
           style="fill:#e9ebed;fill-opacity:1"><path
             d="m 0,0 -0.017,-1.463 -0.078,-1.488 c -0.894,0.293 -1.815,0.516 -2.753,0.663 l 0.061,1.35 -0.009,1.317 -0.052,1.273 -0.12,1.239 -0.172,1.204 -0.224,1.153 -0.275,1.127 -0.379,1.204 -0.438,1.162 -0.508,1.127 -0.576,1.075 -0.646,1.033 -0.714,0.989 -0.783,0.955 -0.851,0.921 -0.809,0.765 -0.869,0.749 -0.921,0.714 -0.972,0.679 -1.058,0.663 -1.11,0.636 -1.178,0.603 -1.231,0.568 -1.299,0.533 -1.35,0.499 -1.42,0.473 -1.48,0.439 -1.531,0.404 -1.6,0.37 -1.764,0.353 -1.832,0.318 -1.893,0.276 -1.97,0.232 -2.031,0.206 -2.099,0.155 V 23.53 l 2.099,-0.843 2.039,-0.869 1.971,-0.895 1.901,-0.929 1.832,-0.955 1.764,-0.981 1.695,-1.015 1.789,-1.144 1.704,-1.179 1.626,-1.222 1.54,-1.247 1.454,-1.291 1.376,-1.324 1.282,-1.36 1.213,-1.393 1.118,-1.429 1.033,-1.471 0.938,-1.471 0.851,-1.514 0.766,-1.54 0.68,-1.574 c -0.955,-0.052 -1.91,-0.181 -2.848,-0.396 l -0.628,1.368 -0.697,1.333 -0.774,1.317 -0.843,1.29 -0.938,1.291 -1.007,1.256 -1.084,1.238 -1.152,1.214 -1.239,1.178 -1.317,1.153 -1.385,1.136 -1.462,1.101 -1.549,1.075 -1.617,1.058 -1.54,0.93 -1.609,0.903 -1.669,0.895 -1.729,0.86 -1.798,0.843 -1.867,0.817 -1.919,0.792 v -5.618 c 0,-1.54 -1.247,-2.787 -2.787,-2.787 h -3.571 l 0.861,-2.117 0.894,-2.047 0.921,-1.962 0.955,-1.875 0.989,-1.807 1.016,-1.721 0.989,-1.548 1.006,-1.48 1.041,-1.402 1.067,-1.343 1.093,-1.264 1.118,-1.196 1.145,-1.127 1.161,-1.05 1.196,-0.989 1.221,-0.921 1.231,-0.834 1.247,-0.766 1.273,-0.705 1.308,-0.637 c -0.241,-0.929 -0.396,-1.884 -0.473,-2.839 l -1.506,0.697 -1.471,0.774 -1.437,0.852 -1.402,0.92 -1.394,1.024 -1.359,1.101 -1.325,1.179 -1.29,1.256 -1.256,1.334 -1.213,1.411 -1.188,1.488 -1.144,1.557 -1.118,1.643 -1.076,1.712 -0.955,1.626 -0.92,1.687 -0.895,1.746 -0.869,1.815 -0.834,1.876 -0.809,1.936 -0.783,1.996 h -1.488 l 0.137,-1.996 0.172,-1.945 0.216,-1.875 0.249,-1.807 0.293,-1.746 0.335,-1.687 0.344,-1.531 0.379,-1.471 0.413,-1.411 0.438,-1.359 0.482,-1.299 0.508,-1.248 0.542,-1.187 0.576,-1.127 0.611,-1.076 0.637,-1.015 0.654,-0.946 0.688,-0.895 0.714,-0.834 0.748,-0.792 0.886,-0.834 0.921,-0.766 0.964,-0.706 1.006,-0.636 1.05,-0.568 1.084,-0.516 1.135,-0.448 1.179,-0.387 1.282,-0.335 1.325,-0.267 1.385,-0.198 1.437,-0.12 1.488,-0.052 1.54,0.017 c 0.12,-0.937 0.318,-1.858 0.594,-2.761 l -1.463,-0.043 -1.428,0.017 -1.394,0.077 -1.359,0.138 -1.325,0.189 -1.299,0.258 -1.256,0.319 -1.196,0.37 -1.17,0.43 -1.127,0.49 -1.093,0.542 -1.075,0.62 -1.041,0.679 -0.998,0.732 -0.964,0.8 -0.92,0.851 -0.86,0.895 -0.826,0.955 -0.783,1.007 -0.749,1.058 -0.714,1.135 -0.679,1.196 -0.646,1.239 -0.593,1.308 -0.568,1.351 -0.516,1.41 -0.482,1.463 -0.447,1.514 -0.405,1.575 -0.361,1.626 -0.353,1.789 -0.301,1.841 -0.267,1.91 -0.223,1.962 -0.181,2.03 -0.138,2.091 h -5.523 l -1.187,-1.618 -1.187,-1.548 -1.188,-1.48 -1.196,-1.403 -1.204,-1.342 -1.196,-1.264 -1.144,-1.127 -1.144,-1.059 -1.145,-1.006 -1.152,-0.938 -1.153,-0.869 -1.162,-0.808 -1.17,-0.749 -1.17,-0.68 -1.178,-0.619 -1.179,-0.551 -1.17,-0.473 -1.17,-0.413 -1.17,-0.344 -1.179,-0.284 -1.204,-0.223 -1.213,-0.147 -1.205,-0.086 -1.213,-0.017 -1.213,0.052 -1.196,0.12 -1.187,0.181 -1.196,0.249 -1.187,0.319 -1.411,0.456 -1.411,0.55 -1.411,0.637 -1.402,0.731 -1.402,0.809 -1.394,0.912 c 0.705,0.619 1.359,1.307 1.944,2.039 l 1.187,-0.74 1.17,-0.671 1.171,-0.603 1.161,-0.524 1.161,-0.456 1.153,-0.387 1.248,-0.345 1.239,-0.258 1.238,-0.18 1.239,-0.095 1.231,-0.009 1.23,0.069 1.23,0.146 1.23,0.233 1.231,0.31 1.23,0.395 1.239,0.482 1.239,0.559 1.238,0.654 1.248,0.731 1.222,0.8 1.23,0.887 1.23,0.972 1.23,1.058 1.256,1.161 1.256,1.248 1.257,1.333 1.264,1.429 1.256,1.514 0.783,0.98 0.998,1.3 c 0.035,0.051 0.078,0.103 0.112,0.154 -0.783,0.267 -1.411,0.861 -1.703,1.635 -0.069,-0.043 -0.129,-0.086 -0.19,-0.129 l -1.849,-1.308 -1.841,-1.221 -1.833,-1.145 -1.815,-1.058 -1.807,-0.981 -1.807,-0.894 -1.686,-0.775 -1.677,-0.705 -1.669,-0.628 -1.661,-0.551 -1.652,-0.482 -1.652,-0.412 -1.634,-0.336 -1.626,-0.258 -1.618,-0.189 -1.608,-0.104 -1.566,-0.043 -1.557,0.035 -1.549,0.112 -1.54,0.18 c 0.439,0.861 0.8,1.747 1.084,2.667 l 1.445,-0.137 1.454,-0.061 h 1.472 l 1.479,0.078 1.523,0.146 1.54,0.215 1.549,0.293 1.565,0.37 1.583,0.438 1.592,0.508 1.609,0.585 1.617,0.662 1.643,0.74 1.652,0.809 1.764,0.938 1.789,1.024 1.798,1.109 1.816,1.196 1.832,1.282 1.841,1.368 v 10.255 l -2.125,0.361 -2.082,0.302 -2.039,0.258 -1.996,0.189 -1.953,0.138 -1.901,0.086 -1.858,0.034 -1.996,-0.034 -1.936,-0.095 -1.884,-0.164 -1.824,-0.232 -1.781,-0.301 -1.72,-0.353 -1.661,-0.43 -1.617,-0.49 -1.557,-0.551 -1.506,-0.619 -1.428,-0.671 -1.385,-0.74 -1.325,-0.792 -1.282,-0.86 c -0.688,0.671 -1.428,1.282 -2.22,1.832 l 1.386,0.973 1.445,0.912 1.497,0.834 1.557,0.766 1.626,0.714 1.686,0.628 1.738,0.568 1.79,0.481 1.841,0.413 1.892,0.345 1.945,0.266 1.987,0.198 2.048,0.129 2.099,0.052 1.953,-0.009 1.987,-0.077 2.039,-0.129 2.073,-0.19 2.125,-0.249 2.16,-0.301 2.202,-0.362 v 1.222 l -1.832,0.912 -1.79,0.843 -1.755,0.783 -1.72,0.706 -1.687,0.645 -1.643,0.576 -1.523,0.491 -1.479,0.421 -1.454,0.37 -1.42,0.31 -1.385,0.249 -1.351,0.198 -1.316,0.129 -1.282,0.086 -1.256,0.017 -1.213,-0.034 -1.161,-0.086 -1.136,-0.138 -1.093,-0.197 -1.075,-0.25 -1.179,-0.344 -1.135,-0.413 -1.11,-0.482 -1.067,-0.542 -1.032,-0.619 -0.998,-0.689 -0.964,-0.765 -0.929,-0.826 -0.946,-0.946 -0.904,-1.024 -0.869,-1.11 -0.834,-1.187 -0.8,-1.274 -0.757,-1.35 c -0.878,0.361 -1.773,0.654 -2.693,0.86 l 0.688,1.273 0.714,1.213 0.757,1.153 0.783,1.101 0.826,1.041 0.852,0.981 0.886,0.929 0.912,0.843 0.929,0.792 0.972,0.731 1.007,0.68 1.049,0.619 1.084,0.568 1.119,0.499 1.153,0.439 1.178,0.378 1.188,0.31 1.213,0.25 1.239,0.189 1.264,0.129 1.325,0.069 1.342,0.008 1.377,-0.043 1.393,-0.112 1.428,-0.172 1.454,-0.232 1.48,-0.292 1.506,-0.345 1.531,-0.404 1.557,-0.473 1.687,-0.559 1.72,-0.62 1.747,-0.688 1.781,-0.757 1.806,-0.817 1.841,-0.886 v 2.52 c 0,1.54 1.248,2.788 2.788,2.788 h 0.395 l -0.765,1.789 -0.706,1.764 -0.645,1.729 -0.585,1.695 -0.525,1.669 -0.456,1.635 -0.378,1.514 -0.319,1.488 -0.266,1.463 -0.215,1.428 -0.147,1.411 -0.103,1.376 -0.043,1.351 0.017,1.325 0.078,1.299 0.129,1.273 0.181,1.222 0.24,1.196 0.302,1.161 0.352,1.144 0.422,1.127 0.473,1.093 0.542,1.075 0.594,1.033 0.653,1.006 0.697,0.947 0.749,0.92 0.808,0.895 0.852,0.852 1.101,0.98 1.162,0.93 1.247,0.886 1.317,0.834 1.385,0.792 1.462,0.748 c 0.19,-0.929 0.456,-1.832 0.792,-2.71 l -1.334,-0.714 -1.264,-0.74 -1.179,-0.783 -1.11,-0.817 -1.032,-0.852 -0.955,-0.894 -0.843,-0.878 -0.775,-0.921 -0.714,-0.946 -0.645,-0.981 -0.576,-1.015 -0.516,-1.049 -0.448,-1.093 -0.387,-1.127 -0.327,-1.161 -0.258,-1.205 -0.198,-1.247 -0.129,-1.282 -0.069,-1.325 V 59.93 l 0.06,-1.402 0.138,-1.454 0.172,-1.334 0.232,-1.359 0.284,-1.402 0.336,-1.437 0.396,-1.463 0.473,-1.591 0.542,-1.626 0.602,-1.669 0.662,-1.695 0.723,-1.738 0.792,-1.772 h 1.746 l -0.301,2.452 -0.224,2.4 -0.146,2.349 -0.077,2.288 -0.009,2.237 0.069,2.176 0.137,2.005 0.198,1.953 0.267,1.901 0.327,1.859 0.404,1.798 0.465,1.755 0.525,1.703 0.602,1.661 0.662,1.6 0.74,1.548 0.783,1.48 0.852,1.42 0.92,1.376 0.981,1.316 c 0.525,-0.808 1.11,-1.565 1.772,-2.271 l -0.86,-1.213 -0.8,-1.256 -0.748,-1.308 -0.689,-1.35 -0.645,-1.437 -0.585,-1.48 -0.525,-1.531 -0.464,-1.575 -0.413,-1.634 -0.344,-1.686 -0.293,-1.738 -0.232,-1.79 -0.164,-1.841 -0.112,-1.893 -0.051,-2.073 0.026,-2.125 0.086,-2.176 0.155,-2.246 0.223,-2.297 0.293,-2.357 h 12.027 l 1.247,1.695 1.171,1.677 1.092,1.678 1.024,1.652 0.938,1.651 0.869,1.635 0.748,1.531 0.688,1.515 0.611,1.505 0.551,1.497 0.482,1.488 0.421,1.472 0.353,1.462 0.284,1.446 0.223,1.445 0.155,1.428 0.095,1.394 0.026,1.385 -0.026,1.376 -0.103,1.368 c 0.929,0.258 1.832,0.594 2.701,1.007 l 0.129,-1.446 0.078,-1.462 v -1.463 l -0.052,-1.479 -0.129,-1.506 -0.189,-1.514 -0.258,-1.523 -0.319,-1.523 -0.387,-1.54 -0.456,-1.54 -0.516,-1.54 -0.585,-1.557 -0.654,-1.557 -0.714,-1.566 -0.826,-1.66 -0.895,-1.678 -0.972,-1.677 -1.041,-1.687 -1.118,-1.694 -1.187,-1.695 -0.818,-1.127 -1.084,-1.437 v -2.693 l 1.609,1.101 1.531,1.11 1.463,1.11 1.394,1.11 1.316,1.11 1.247,1.109 1.11,1.05 1.041,1.05 0.981,1.049 0.921,1.05 0.851,1.049 0.869,1.17 0.8,1.17 0.714,1.17 0.646,1.162 0.559,1.17 0.49,1.17 0.413,1.161 0.336,1.171 0.258,1.161 0.18,1.17 0.112,1.17 0.043,1.17 -0.034,1.179 -0.112,1.178 -0.181,1.196 -0.258,1.196 -0.352,1.256 -0.439,1.273 -0.516,1.274 -0.603,1.29 -0.688,1.299 -0.774,1.299 c 0.748,0.577 1.445,1.213 2.09,1.902 l 0.775,-1.257 0.705,-1.256 0.637,-1.256 0.559,-1.264 0.499,-1.256 0.421,-1.265 0.362,-1.256 0.275,-1.239 0.207,-1.23 0.137,-1.239 0.069,-1.23 -0.008,-1.256 -0.078,-1.248 -0.146,-1.247 -0.224,-1.239 -0.292,-1.23 -0.362,-1.214 -0.421,-1.195 -0.499,-1.196 -0.559,-1.187 -0.646,-1.196 -0.714,-1.196 -0.783,-1.187 -0.851,-1.179 -0.912,-1.17 -0.99,-1.17 -1.049,-1.153 -1.127,-1.153 -1.188,-1.153 -1.256,-1.135 -1.402,-1.205 -1.48,-1.196 -1.557,-1.195 -1.634,-1.188 -1.704,-1.178 -1.781,-1.179 v -4.121 l 2.185,-0.163 2.125,-0.207 2.065,-0.249 1.988,-0.284 1.927,-0.336 1.867,-0.37 1.694,-0.395 1.635,-0.431 1.583,-0.464 1.523,-0.508 1.462,-0.55 1.403,-0.585 1.35,-0.62 1.291,-0.671 1.23,-0.705 1.17,-0.74 1.101,-0.774 1.033,-0.818 0.98,-0.851 0.912,-0.887 0.878,-0.955 0.809,-0.989 0.748,-1.024 0.688,-1.075 0.62,-1.101 0.55,-1.127 0.482,-1.162 0.422,-1.196 0.361,-1.23 0.301,-1.29 0.241,-1.334 0.172,-1.359 0.103,-1.394 z"
             style="fill:#e9ebed;fill-opacity:1;fill-rule:nonzero;stroke:none"
             id="path101"
             inkscape:connector-curvature="0" /></g></g></g></g></svg>