<?xml version="1.0" encoding="utf-8"?>
<!-- Generator: Adobe Illustrator 17.0.0, SVG Export Plug-In . SVG Version: 6.00 Build 0)  -->
<!DOCTYPE svg PUBLIC "-//W3C//DTD SVG 1.1//EN" "http://www.w3.org/Graphics/SVG/1.1/DTD/svg11.dtd">
<svg version="1.1" id="Layer_1" xmlns="http://www.w3.org/2000/svg" xmlns:xlink="http://www.w3.org/1999/xlink" x="0px" y="0px"
	 width="682px" height="484.582px" viewBox="0 0 682 484.582" enable-background="new 0 0 682 484.582" xml:space="preserve">
<g>
	<g id="CIRCLE_1_">
		<path fill="#4C6CA9" d="M349.88,378.31c-22.35,0-40.46,18.12-40.46,40.46c0,22.35,18.11,40.47,40.46,40.47
			s40.46-18.12,40.46-40.47C390.34,396.43,372.23,378.31,349.88,378.31z M349.88,451.14c-17.88,0-32.37-14.49-32.37-32.37
			c0-17.87,14.49-32.37,32.37-32.37s32.37,14.5,32.37,32.37C382.25,436.65,367.76,451.14,349.88,451.14z"/>
	</g>
	<g id="LINE_4_">
		<path fill="#4C6CA9" d="M119.53,447.39c-7.59,7.58-17.88,11.85-28.62,11.85c-22.34,0-40.46-18.12-40.46-40.47V297.38h8.09v121.39
			c0,17.88,14.5,32.37,32.37,32.37c8.59,0,16.82-3.41,22.89-9.48L119.53,447.39z"/>
	</g>
	<g id="LINE_6_">
		<path fill="#4C6CA9" d="M175.89,378.51c-22.24-2.23-42.07,13.98-44.31,36.22c-2.23,22.23,13.98,42.07,36.21,44.3
			c12.09,1.22,24.08-3.06,32.66-11.64l-5.72-5.73c-5.08,5.09-11.71,8.33-18.84,9.23c-17.74,2.23-33.93-10.33-36.17-28.07h72.38
			C214.34,400.58,198.12,380.75,175.89,378.51z M139.72,414.73c1.85-14.67,13.41-26.23,28.07-28.07
			c17.74-2.24,33.93,10.33,36.17,28.07H139.72z"/>
	</g>
	<g id="LINE_14_">
		<path fill="#4C6CA9" d="M266.6,418.77l30.68,35.11c-1.88,1.94-3.91,3.74-6.07,5.36l-30.35-34.73l-30.35,34.73
			c-2.16-1.62-4.19-3.42-6.07-5.36l30.68-35.11l-30.68-35.1c1.88-1.95,3.91-3.74,6.07-5.36l30.35,34.73l30.35-34.73
			c2.16,1.62,4.19,3.41,6.07,5.36L266.6,418.77z"/>
	</g>
	<g id="LINE_18_">
		<path fill="#4C6CA9" d="M466.52,381.39l-3.09,7.48c-16.52-6.84-35.46,1-42.3,17.52c-1.63,3.92-2.46,8.13-2.46,12.38v40.47h-8.1
			v-40.47c0-5.31,1.05-10.57,3.08-15.48C422.21,382.64,445.88,372.84,466.52,381.39z"/>
	</g>
	<g id="LINE_22_">
		<path fill="#4C6CA9" d="M645.55,447.39c-7.59,7.58-17.88,11.85-28.61,11.85c-22.35,0-40.47-18.12-40.47-40.47V297.38h8.1v121.39
			c0,17.88,14.49,32.37,32.37,32.37c8.58,0,16.82-3.41,22.89-9.48L645.55,447.39z"/>
	</g>
	<g id="LINE_25_">
		<path fill="#4C6CA9" d="M515.78,378.31c-22.35,0-40.46,18.12-40.46,40.46c0,22.35,18.11,40.47,40.46,40.47
			c12.74,0,24.73-6,32.37-16.19v16.19h8.09v-40.47C556.24,396.43,538.13,378.31,515.78,378.31z M515.78,451.14
			c-17.88,0-32.37-14.49-32.37-32.37c0-17.87,14.49-32.37,32.37-32.37c17.88,0,32.37,14.5,32.37,32.37
			C548.15,436.65,533.66,451.14,515.78,451.14z"/>
	</g>
</g>
<g>
	<g id="ARC_33_">
		<path fill="#4C6CA9" d="M454.803,252.863c-2.232-4.481-5.433-8.409-9.378-11.506c34.934-59.556,15.434-136.12-43.707-171.729
			c1.973-4.602,2.924-9.586,2.734-14.586c2.561,1.419,5.07,2.907,7.527,4.481C477.193,101.083,496.364,187.649,454.803,252.863z"/>
	</g>
	<g id="ARC_36_">
		<path fill="#4C6CA9" d="M224.47,234.885c-4.758,1.782-9.914,2.249-14.915,1.35c-7.163-15.555-11.42-32.27-12.544-49.347
			c3.945-3.201,8.703-5.243,13.738-5.952c12.96-1.799,25.435,5.623,30.037,17.856C246.254,213.274,238.935,229.418,224.47,234.885z"
			/>
	</g>
	<g id="ARC_42_">
		<path fill="#4C6CA9" d="M342.872,37.704c-2.768,4.17-4.585,8.911-5.277,13.877c-69.038-0.484-125.618,54.677-126.881,123.714
			c-4.966,0.571-9.759,2.267-13.998,4.931c-0.052-2.924-0.017-5.848,0.121-8.772C200.228,94.197,265.598,34.312,342.872,37.704z"/>
	</g>
	<g id="ARC_45_">
		<path fill="#4C6CA9" d="M396.805,66.824c-4.914,12.129-17.579,19.223-30.487,17.095c-15.261-2.509-25.591-16.922-23.082-32.183
			c0.813-5.001,2.993-9.707,6.281-13.583c17.043,1.575,33.654,6.246,49.018,13.808C399.313,56.979,398.725,62.118,396.805,66.824z"
			/>
	</g>
	<g id="ARC_52_">
		<path fill="#4C6CA9" d="M408.986,297.521c-37.685,22.718-83.866,26.387-124.666,9.914l-3.461,2.699l-3.495,2.578l-3.564,2.457
			l-3.599,2.319l-3.616,2.197l-3.859,2.215l-3.858,2.059l-3.858,1.938l-3.824,1.817l-3.789,1.678l-3.737,1.575l-3.668,1.436
			l-3.599,1.315l-3.495,1.194l-3.391,1.073l-3.27,0.969l-3.132,0.848l-2.526,0.623l-2.405,0.554l-2.284,0.467l-2.163,0.398
			l-1.713,0.277l-1.626,0.225l-1.505,0.19l-1.402,0.121l-1.28,0.069l-1.142,0.035c-0.831,0-1.609-0.363-2.146-1.004
			c-1.003-1.177-0.848-2.941,0.329-3.945c20.313-17.337,29.64-44.33,24.328-70.509c-5.762-7.181-10.814-14.915-15.071-23.082
			c5,0.311,10.001-0.502,14.655-2.37c34.104,60.023,110.166,81.444,170.57,48.015C400.715,291.88,404.556,295.185,408.986,297.521z"
			/>
	</g>
	<g id="ARC_55_">
		<path fill="#4C6CA9" d="M451.083,258.4c-9.88,13.98-22.234,26.023-36.457,35.557c-4.741-1.834-8.894-4.914-12.025-8.928
			c-8.029-10.33-7.855-24.847,0.45-34.969c9.793-11.956,27.442-13.704,39.398-3.893C446.394,249.385,449.37,253.624,451.083,258.4z"
			/>
	</g>
	<g id="LWPOLYLINE_13_">
		<path fill="#8BA861" d="M435.545,230.006l-0.035,2.941l-0.156,2.993c-1.799-0.588-3.651-1.038-5.537-1.332l0.121-2.717
			l-0.017-2.647l-0.104-2.561l-0.242-2.492l-0.346-2.422l-0.45-2.319l-0.554-2.267l-0.761-2.422l-0.882-2.336l-1.021-2.267
			l-1.159-2.163l-1.298-2.076l-1.436-1.99l-1.574-1.921l-1.713-1.851l-1.626-1.54l-1.748-1.505l-1.851-1.436l-1.955-1.367
			l-2.128-1.332l-2.232-1.28l-2.37-1.211l-2.474-1.142l-2.613-1.073l-2.717-1.003l-2.855-0.952l-2.976-0.882l-3.08-0.813
			l-3.218-0.744l-3.547-0.709l-3.685-0.64l-3.807-0.554l-3.962-0.467l-4.084-0.415l-4.222-0.311v1.903l4.222,1.696l4.101,1.748
			l3.962,1.799l3.824,1.869l3.685,1.921l3.547,1.973l3.409,2.042l3.599,2.301l3.426,2.37l3.27,2.457l3.097,2.509l2.924,2.595
			l2.768,2.665l2.578,2.734l2.44,2.803l2.249,2.872l2.076,2.959l1.886,2.959l1.713,3.045l1.54,3.097l1.367,3.166
			c-1.921,0.104-3.841,0.363-5.727,0.796l-1.263-2.751l-1.402-2.682l-1.557-2.647l-1.696-2.595l-1.886-2.595l-2.024-2.526
			l-2.18-2.492l-2.319-2.44l-2.492-2.37l-2.647-2.319l-2.786-2.284l-2.941-2.215l-3.114-2.163l-3.253-2.128l-3.097-1.869
			l-3.236-1.817l-3.357-1.799l-3.478-1.73l-3.616-1.696l-3.755-1.644l-3.859-1.592v11.299c0,3.097-2.509,5.606-5.606,5.606h-7.181
			l1.73,4.257l1.799,4.118l1.851,3.945l1.921,3.772l1.99,3.634l2.042,3.461l1.99,3.114l2.025,2.976l2.094,2.82l2.146,2.699
			l2.197,2.544l2.249,2.405l2.301,2.267l2.336,2.111l2.405,1.99l2.457,1.851l2.474,1.678l2.509,1.54l2.561,1.419l2.63,1.28
			c-0.484,1.869-0.796,3.789-0.952,5.71l-3.028-1.401l-2.959-1.557l-2.89-1.713l-2.82-1.851l-2.803-2.059l-2.734-2.215l-2.665-2.37
			l-2.595-2.526l-2.526-2.682l-2.44-2.838l-2.388-2.993l-2.301-3.132l-2.249-3.305l-2.163-3.443l-1.921-3.27l-1.851-3.391
			l-1.799-3.512l-1.748-3.651l-1.678-3.772l-1.626-3.893l-1.575-4.014h-2.993l0.277,4.014l0.346,3.91l0.433,3.772l0.502,3.634
			l0.588,3.512l0.675,3.391l0.692,3.08l0.761,2.959l0.831,2.838l0.882,2.734l0.969,2.613l1.021,2.509l1.09,2.388l1.159,2.267
			l1.229,2.163l1.28,2.042l1.315,1.903l1.384,1.799l1.436,1.678l1.505,1.592l1.782,1.678l1.851,1.54l1.938,1.419l2.025,1.28
			l2.111,1.142l2.18,1.038l2.284,0.9l2.37,0.779l2.578,0.675l2.665,0.536l2.786,0.398l2.89,0.242l2.993,0.104l3.097-0.035
			c0.242,1.886,0.64,3.737,1.194,5.554l-2.941,0.086l-2.872-0.035l-2.803-0.156l-2.734-0.277l-2.665-0.381l-2.613-0.519l-2.526-0.64
			l-2.405-0.744l-2.353-0.865l-2.267-0.986l-2.197-1.09l-2.163-1.246l-2.094-1.367l-2.007-1.471l-1.938-1.609l-1.851-1.713
			l-1.73-1.799l-1.661-1.921l-1.574-2.024l-1.505-2.128l-1.436-2.284l-1.367-2.405l-1.298-2.492l-1.194-2.63l-1.142-2.717
			l-1.038-2.838l-0.969-2.941l-0.9-3.045l-0.813-3.166l-0.727-3.27l-0.709-3.599l-0.606-3.703l-0.536-3.841l-0.45-3.945
			l-0.363-4.083l-0.277-4.205h-11.108l-2.388,3.253l-2.388,3.114l-2.388,2.976l-2.405,2.82l-2.422,2.699l-2.405,2.544l-2.301,2.267
			l-2.301,2.128l-2.301,2.025l-2.318,1.886l-2.319,1.748l-2.336,1.626l-2.353,1.505l-2.353,1.367l-2.37,1.246l-2.37,1.107
			l-2.353,0.952l-2.353,0.83l-2.353,0.692l-2.37,0.571l-2.422,0.45l-2.44,0.294l-2.422,0.173l-2.44,0.035l-2.44-0.104l-2.405-0.242
			l-2.388-0.363l-2.405-0.502l-2.388-0.64l-2.838-0.917l-2.838-1.107l-2.838-1.28l-2.82-1.471l-2.82-1.626l-2.803-1.834
			c1.419-1.246,2.734-2.63,3.91-4.101l2.388,1.488l2.353,1.35l2.353,1.211l2.336,1.056l2.336,0.917l2.319,0.779l2.509,0.692
			l2.492,0.519l2.492,0.363l2.492,0.19l2.474,0.017l2.474-0.138l2.474-0.294l2.474-0.467l2.474-0.623l2.474-0.796l2.492-0.969
			l2.492-1.125l2.492-1.315l2.509-1.471l2.457-1.609l2.474-1.782l2.474-1.955l2.474-2.128l2.526-2.336l2.526-2.509l2.526-2.682
			l2.543-2.872l2.526-3.045l1.574-1.973l2.007-2.613c0.069-0.104,0.156-0.208,0.225-0.311c-1.574-0.536-2.838-1.73-3.426-3.288
			c-0.138,0.087-0.259,0.173-0.381,0.26l-3.72,2.63l-3.703,2.457l-3.685,2.301l-3.651,2.128l-3.634,1.973l-3.634,1.799l-3.391,1.557
			l-3.374,1.419l-3.357,1.263l-3.339,1.107l-3.322,0.969l-3.322,0.83l-3.287,0.675l-3.27,0.519l-3.253,0.381l-3.236,0.208
			l-3.149,0.087l-3.132-0.069l-3.114-0.225l-3.097-0.363c0.882-1.73,1.609-3.512,2.18-5.364l2.907,0.277l2.924,0.121h2.959
			l2.976-0.156l3.063-0.294l3.097-0.433l3.115-0.588l3.149-0.744l3.184-0.882l3.201-1.021l3.236-1.177l3.253-1.332l3.305-1.488
			l3.322-1.626l3.547-1.886l3.599-2.059l3.616-2.232l3.651-2.405l3.685-2.578l3.703-2.751v-20.625l-4.274-0.727l-4.187-0.606
			l-4.101-0.519l-4.014-0.381l-3.928-0.277l-3.824-0.173l-3.737-0.069l-4.014,0.069l-3.893,0.19l-3.789,0.329l-3.668,0.467
			l-3.582,0.606l-3.461,0.709l-3.339,0.865l-3.253,0.986l-3.132,1.107l-3.028,1.246l-2.872,1.35l-2.786,1.488l-2.665,1.592
			l-2.578,1.73c-1.384-1.35-2.872-2.578-4.464-3.685l2.786-1.955l2.907-1.834l3.011-1.678l3.132-1.54l3.27-1.436l3.391-1.263
			l3.495-1.142l3.599-0.969l3.703-0.831l3.807-0.692l3.91-0.536l3.997-0.398l4.118-0.26l4.222-0.104l3.928,0.017l3.997,0.156
			l4.101,0.259l4.17,0.381l4.274,0.502l4.343,0.606l4.429,0.727v-2.457l-3.685-1.834l-3.599-1.696l-3.53-1.575l-3.461-1.419
			l-3.391-1.298l-3.305-1.159l-3.063-0.986l-2.976-0.848l-2.924-0.744l-2.855-0.623l-2.786-0.502l-2.717-0.398l-2.647-0.259
			l-2.578-0.173l-2.526-0.035l-2.44,0.069l-2.336,0.173l-2.284,0.277l-2.197,0.398l-2.163,0.502l-2.37,0.692l-2.284,0.83
			l-2.232,0.969l-2.146,1.09l-2.076,1.246l-2.007,1.384l-1.938,1.54l-1.869,1.661l-1.903,1.903l-1.817,2.059L232.36,170
			l-1.678,2.388l-1.609,2.561l-1.523,2.717c-1.765-0.727-3.564-1.315-5.416-1.73l1.384-2.561l1.436-2.44l1.523-2.319l1.575-2.215
			l1.661-2.094l1.713-1.973l1.782-1.869l1.834-1.696l1.869-1.592l1.955-1.471l2.024-1.367l2.111-1.246l2.18-1.142l2.249-1.004
			l2.319-0.882l2.37-0.761l2.388-0.623l2.44-0.502l2.492-0.381l2.543-0.259l2.665-0.138l2.699-0.017l2.768,0.087l2.803,0.225
			l2.872,0.346l2.924,0.467l2.976,0.588l3.028,0.692l3.08,0.813l3.132,0.952l3.391,1.125l3.461,1.246l3.513,1.384l3.582,1.523
			l3.634,1.644l3.703,1.782v-5.07c0-3.097,2.509-5.606,5.606-5.606h0.796l-1.54-3.599l-1.419-3.547l-1.298-3.478l-1.177-3.409
			l-1.056-3.357l-0.917-3.288l-0.761-3.045l-0.64-2.993l-0.536-2.941l-0.433-2.872l-0.294-2.838l-0.208-2.768l-0.086-2.717
			l0.035-2.665l0.156-2.613l0.259-2.561l0.363-2.457l0.484-2.405l0.606-2.336l0.709-2.301l0.848-2.267l0.952-2.197l1.09-2.163
			l1.194-2.076l1.315-2.024l1.402-1.903l1.505-1.851l1.626-1.799l1.713-1.713l2.215-1.972l2.336-1.869l2.509-1.782l2.647-1.678
			l2.786-1.592L337.941,63c0.381,1.869,0.917,3.685,1.592,5.45l-2.682,1.436l-2.544,1.488l-2.37,1.575l-2.232,1.644l-2.076,1.713
			l-1.921,1.799l-1.696,1.765l-1.557,1.851l-1.436,1.903l-1.298,1.973l-1.159,2.042l-1.038,2.111l-0.9,2.197l-0.779,2.267
			l-0.658,2.336l-0.519,2.422l-0.398,2.509l-0.26,2.578l-0.138,2.665v2.751l0.121,2.82l0.277,2.924l0.346,2.682l0.467,2.734
			l0.571,2.82l0.675,2.89l0.796,2.941l0.952,3.201l1.09,3.27l1.211,3.357l1.332,3.409l1.453,3.495l1.592,3.564h3.512l-0.606-4.931
			l-0.45-4.828l-0.294-4.724l-0.156-4.603l-0.017-4.499l0.138-4.378l0.277-4.032l0.398-3.928l0.536-3.824l0.658-3.737l0.813-3.616
			l0.934-3.53l1.055-3.426l1.211-3.339l1.332-3.218l1.488-3.114l1.575-2.976l1.713-2.855l1.851-2.768l1.973-2.647
			c1.055,1.626,2.232,3.149,3.564,4.568l-1.73,2.44l-1.609,2.526l-1.505,2.63l-1.384,2.717l-1.298,2.89l-1.177,2.976l-1.055,3.08
			l-0.934,3.166l-0.831,3.287l-0.692,3.391l-0.588,3.495l-0.467,3.599l-0.329,3.703l-0.225,3.807l-0.104,4.17l0.052,4.274
			l0.173,4.378l0.312,4.516l0.45,4.62l0.588,4.741h24.189l2.509-3.409l2.353-3.374l2.197-3.374l2.059-3.322l1.886-3.322l1.747-3.287
			l1.505-3.08l1.384-3.045l1.228-3.028l1.107-3.011l0.969-2.993l0.848-2.959l0.709-2.941l0.571-2.907l0.45-2.907l0.311-2.872
			l0.19-2.803l0.052-2.786l-0.052-2.768l-0.208-2.751c1.869-0.519,3.685-1.194,5.433-2.024l0.26,2.907l0.156,2.941v2.941
			l-0.104,2.976l-0.259,3.028l-0.381,3.045l-0.519,3.063l-0.64,3.063l-0.779,3.097l-0.917,3.097l-1.038,3.097l-1.177,3.132
			l-1.315,3.132l-1.436,3.149l-1.661,3.339L373.74,136l-1.955,3.374l-2.094,3.391l-2.249,3.409l-2.388,3.409l-1.644,2.267
			l-2.18,2.89v5.416l3.236-2.215l3.08-2.232l2.941-2.232l2.803-2.232l2.647-2.232l2.509-2.232l2.232-2.111l2.094-2.111l1.973-2.111
			l1.851-2.111l1.713-2.111l1.748-2.353l1.609-2.353l1.436-2.353l1.298-2.336l1.125-2.353l0.986-2.353l0.831-2.336l0.675-2.353
			l0.519-2.336l0.363-2.353l0.225-2.353l0.086-2.353l-0.069-2.37l-0.225-2.37l-0.363-2.405l-0.519-2.405l-0.709-2.526l-0.882-2.561
			l-1.038-2.561l-1.211-2.595l-1.384-2.613l-1.557-2.613c1.505-1.159,2.907-2.44,4.205-3.824l1.557,2.526l1.419,2.526l1.28,2.526
			l1.125,2.543l1.004,2.526l0.848,2.543l0.727,2.526l0.554,2.492l0.415,2.474l0.277,2.492l0.138,2.474l-0.017,2.526l-0.156,2.509
			l-0.294,2.509l-0.45,2.492l-0.588,2.474l-0.727,2.44l-0.848,2.405l-1.004,2.405l-1.125,2.388l-1.298,2.405l-1.436,2.405
			l-1.575,2.388l-1.713,2.37l-1.834,2.353l-1.99,2.353l-2.111,2.319l-2.267,2.319l-2.388,2.319l-2.526,2.284l-2.82,2.422
			l-2.976,2.405l-3.132,2.405l-3.287,2.388l-3.426,2.37l-3.582,2.37v8.288l4.395,0.329l4.274,0.415l4.153,0.502l3.997,0.571
			l3.876,0.675l3.755,0.744l3.409,0.796l3.287,0.865l3.184,0.934l3.063,1.021l2.941,1.107l2.82,1.177l2.717,1.246l2.595,1.35
			l2.474,1.419l2.353,1.488l2.215,1.557l2.076,1.644l1.973,1.713l1.834,1.782l1.765,1.921l1.626,1.99l1.505,2.059l1.384,2.163
			l1.246,2.215l1.107,2.267l0.969,2.336l0.848,2.405l0.727,2.474l0.606,2.595l0.484,2.682l0.346,2.734l0.208,2.803L435.545,230.006z
			"/>
	</g>
</g>
</svg>
